<svg xmlns="http://www.w3.org/2000/svg" width="127" height="24" fill="none"><path fill="#090909" d="M23.116.549h9.582L22.982 24H10.051L.335.549h9.581l6.6 17.42 6.6-17.42Zm19.409 0V24h-8.711V.549h8.71Zm20.186 0c5.327 0 8.979 3.752 8.979 8.978 0 5.227-3.652 8.979-8.979 8.979h-9.715V24h-8.71V.549H62.71Zm-1.675 10.586c.871 0 1.943 0 1.943-1.608S61.907 7.92 61.036 7.92h-8.04v3.216h8.04ZM97.902 7.25h-16.08v2.178h16.08v5.695h-16.08V17.3h16.08V24H73.111V.549h24.791v6.7Zm28.821 2.278c0 3.417-1.574 6.232-4.154 7.74L126.723 24h-10.318l-3.25-5.494h-5.126V24h-8.71V.549h18.426c5.327 0 8.978 3.752 8.978 8.978ZM108.029 7.92v3.216h8.041c.871 0 1.943 0 1.943-1.608s-1.072-1.608-1.943-1.608h-8.041Z"/></svg>